<?xml version="1.0" encoding="UTF-8" standalone="no"?>
<!DOCTYPE svg PUBLIC "-//W3C//DTD SVG 1.1//EN" "http://www.w3.org/Graphics/SVG/1.1/DTD/svg11.dtd">
<svg width="100%" height="100%" viewBox="0 0 674 347" version="1.1" xmlns="http://www.w3.org/2000/svg" xmlns:xlink="http://www.w3.org/1999/xlink" xml:space="preserve" xmlns:serif="http://www.serif.com/" style="fill-rule:evenodd;clip-rule:evenodd;stroke-linecap:round;stroke-linejoin:round;stroke-miterlimit:1.5;">
    <g transform="matrix(1,0,0,1,-139.305414,-339.061069)">
        <path d="M183.018,533.946C182.402,552.4 175.701,558.43 161.651,546.504C132.592,521.839 126.131,432.026 237.05,359.953C325.728,302.332 355.186,401.159 289.139,540.694C270.738,579.567 248.194,628.9 209.937,671.254C179.621,704.817 179.975,647.931 212.388,604.658C241.974,565.158 311.758,495.357 346.75,485.653C348.424,485.189 350.38,484.647 368.032,481.336C337.622,494.731 330.34,535.589 358.785,528.433C371.303,525.284 391.143,492.015 372.272,483.97C356.55,477.267 411.182,486.188 434.519,475.763C460.439,464.184 469.856,436.683 459.087,461.685C453.772,474.023 466.815,490.71 462.141,505.574C455.568,526.478 411.386,496.964 419.194,506.625C427.607,517.035 457.428,525.522 476.186,521.069C551.147,503.278 563.858,422.994 532.228,455.79C518.319,470.212 508.424,493.236 518.924,503.371C538.255,522.028 611.209,461.662 611.209,461.662L513.776,643.482C513.776,643.482 584.373,513.166 594.625,493.789C609.27,466.106 625.84,425.679 636.17,446.481C643.877,462 635.872,478.023 629.268,483.657C619.136,492.302 611.307,499.627 584.462,490.64C614.752,508.661 653.539,483.115 662.316,477.012C717.758,438.458 777.186,319.67 763.089,350.553C757.148,363.568 740.45,397.065 725.484,431.581C711.945,462.805 710.628,461.955 698.544,490.95C699.9,490.604 758.313,428.719 743.923,486.86C739.775,503.621 785.456,478.292 808.151,487.944" style="fill:none;stroke:black;stroke-width:8.33px;"/>
    </g>
</svg>
